<?xml version="1.0" encoding="UTF-8" standalone="no"?>
<!-- Created with Inkscape (http://www.inkscape.org/) -->

<svg
   width="208.48981mm"
   height="25.520594mm"
   viewBox="0 0 208.48981 25.520594"
   version="1.1"
   id="svg5"
   xml:space="preserve"
   xmlns="http://www.w3.org/2000/svg"
   xmlns:svg="http://www.w3.org/2000/svg"><defs
     id="defs2" /><g
     id="g158"
     transform="matrix(0.03527778,0,0,-0.03527778,-0.23611531,25.671076)"><path
       d="M 2089.63,194.234 V 21.6328 H 1976.67 V 522.746 h 176.9 c 126.32,0 189.42,-53.203 189.42,-159.723 0,-50.335 -18.13,-91.015 -54.39,-122.148 -36.27,-31.012 -84.58,-46.641 -145.17,-46.641 h -53.8"
       style="fill:#231f20;fill-opacity:1;fill-rule:evenodd;stroke:none"
       id="path160" /><path
       d="m 1704.23,21.6406 c -59.64,0 -106.52,16.6992 -140.64,50.0977 -34.11,33.4027 -51.16,78.8477 -51.16,136.1057 0,59.164 17.65,105.566 53.07,138.965 35.43,33.398 83.38,50.101 143.63,50.101 59.4,0 106.04,-16.703 139.79,-50.101 33.76,-33.399 50.7,-77.653 50.7,-132.645 0,-59.402 -17.42,-106.398 -52.25,-140.871 -34.83,-34.4766 -82.54,-51.6524 -143.14,-51.6524"
       style="fill:#231f20;fill-opacity:1;fill-rule:evenodd;stroke:none"
       id="path162" /><path
       d="M 2089.63,436.145 V 279.879 H 2134 c 60.12,0 90.18,26.363 90.18,78.969 0,51.531 -30.06,77.297 -90.18,77.297 h -44.37"
       style="fill:#ffffff;fill-opacity:1;fill-rule:evenodd;stroke:none"
       id="path164" /><path
       d="m 1707.09,312.336 c -26.12,0 -46.4,-8.949 -60.83,-26.84 -14.43,-18.012 -21.71,-43.418 -21.71,-76.223 0,-68.707 27.79,-103.058 83.26,-103.058 52.84,0 79.32,35.308 79.32,105.801 0,66.922 -26.71,100.32 -80.04,100.32"
       style="fill:#ffffff;fill-opacity:1;fill-rule:evenodd;stroke:none"
       id="path166" /><path
       d="m 1451.82,47.5391 c -35.25,-17.0508 -81.45,-25.5782 -138.37,-25.5782 -74.19,0 -132.6,21.7774 -175.11,65.4414 -42.63,43.6637 -63.83,101.8437 -63.83,174.5387 0,77.422 23.85,140.211 71.66,188.368 47.81,48.16 109.91,72.238 186.18,72.238 47.24,0 87.1,-5.992 119.47,-17.973 V 399.617 c -32.37,19.356 -69.24,29.031 -110.71,29.031 -45.4,0 -82.15,-14.285 -110.03,-42.855 -27.88,-28.57 -41.82,-67.281 -41.82,-116.133 0,-46.773 13.13,-84.097 39.52,-111.863 26.26,-27.77 61.75,-41.711 106.33,-41.711 42.52,0 81.46,10.371 116.71,31.109 V 47.5391"
       style="fill:#231f20;fill-opacity:1;fill-rule:evenodd;stroke:none"
       id="path168" /><path
       d="M 1012.26,21.6328 H 711.664 V 522.746 H 1000.69 V 430.895 H 824.625 V 319.363 H 988.52 V 227.875 H 824.625 V 113.242 H 1012.26 V 21.6328"
       style="fill:#231f20;fill-opacity:1;fill-rule:evenodd;stroke:none"
       id="path170" /><path
       d="m 11.0391,23.9727 c 125.0159,0 249.5739,0.0234 374.5899,0.0234 101.934,0 145.226,16.457 189.469,59.3594 29.55,28.6565 63.699,78.0395 63.367,151.5465 -0.817,179.313 -163.781,159.141 -160.926,261.672 0.645,23.196 15.055,45.395 35.422,56.707 19.34,10.746 38.801,16.028 70.637,16.11 130.187,0.32 -0.43,0 135.035,0.207 L 2489.96,569.594 2579.3,723.336 646.41,723.34 C 559.664,721.238 467.227,728.07 397.316,663.559 341.348,611.91 322.09,552.535 321.867,498.844 c -0.238,-56.942 17.406,-95.567 37.848,-125.016 48.543,-69.945 127.66,-83.73 126.996,-136.433 -0.719,-56.586 -55.023,-63.293 -144.563,-62.848 -81.058,0.398 -162.363,-0.27 -243.4371,0.019 L 11.0391,23.9727"
       style="fill:#231f20;fill-opacity:1;fill-rule:evenodd;stroke:none"
       id="path172" /><path
       d="m 11.0391,23.9727 c 125.0159,0 249.5739,0.0234 374.5899,0.0234 101.934,0 145.226,16.457 189.469,59.3594 29.55,28.6565 63.699,78.0395 63.367,151.5465 -0.817,179.313 -163.781,159.141 -160.926,261.672 0.645,23.196 15.055,45.395 35.422,56.707 19.34,10.746 38.801,16.028 70.637,16.11 130.187,0.32 -0.43,0 135.035,0.207 L 2489.96,569.594 2579.3,723.336 646.41,723.34 C 559.664,721.238 467.227,728.07 397.316,663.559 341.348,611.91 322.09,552.535 321.867,498.844 c -0.238,-56.942 17.406,-95.567 37.848,-125.016 48.543,-69.945 127.66,-83.73 126.996,-136.433 -0.719,-56.586 -55.023,-63.293 -144.563,-62.848 -81.058,0.398 -162.363,-0.27 -243.4371,0.019 z"
       style="fill:none;stroke:#231f20;stroke-width:4.9975;stroke-linecap:butt;stroke-linejoin:miter;stroke-miterlimit:22.9256;stroke-dasharray:none;stroke-opacity:1"
       id="path174" /><path
       d="m 5475.06,129.918 272.08,244.793 -272.08,244.785 97.26,108.188 344.32,-310.661 V 332.398 L 5572.32,22.8281 5475.06,129.918"
       style="fill:#33bdf2;fill-opacity:1;fill-rule:evenodd;stroke:none"
       id="path176" /><path
       d="m 3349.54,129.918 -272.11,244.793 272.11,244.785 -97.27,108.188 -347.51,-312.543 v -80.868 l 347.51,-311.4449 97.27,107.0899"
       style="fill:#33bdf2;fill-opacity:1;fill-rule:evenodd;stroke:none"
       id="path178" /><path
       d="m 3874.09,441.371 v 286.313 h 135.5 V 22.8281 h -135.5 V 306.953 H 3642.41 V 22.8281 H 3506.89 V 727.684 h 135.52 V 441.371 h 231.68"
       style="fill:#142a5e;fill-opacity:1;fill-rule:evenodd;stroke:none"
       id="path180" /><path
       d="M 4738.49,726.594 V 21.7305 H 4602.98 V 411.863 l -95.07,-198.89 c -3.28,-6.559 -8.75,-9.836 -16.4,-9.836 h -106 c -6.55,0 -13.11,4.371 -15.3,9.836 l -95.07,198.89 V 21.7305 H 4139.63 V 726.594 h 135.51 l 163.92,-344.235 163.92,344.235 h 135.51"
       style="fill:#142a5e;fill-opacity:1;fill-rule:evenodd;stroke:none"
       id="path182" /><path
       d="m 5267.41,223.902 96.15,-95.074 -73.2,-72.1288 c -20.77,-21.8515 -49.19,-34.9687 -79.79,-34.9687 h -178.11 c -29.53,0 -59.01,12.0234 -79.78,32.789 l -69.96,69.9335 c -20.72,21.863 -31.67,51.363 -31.67,80.871 v 338.77 c 0,29.504 12.01,57.918 32.78,79.773 l 69.96,69.942 c 20.77,20.761 49.14,32.781 78.67,33.875 h 178.12 c 30.59,0 59.01,-13.114 79.78,-34.969 l 73.2,-72.125 -96.15,-95.074 -60.13,60.105 c -4.35,4.371 -9.82,6.555 -16.36,6.555 l -138.8,0.004 c -5.48,0 -12.01,-2.188 -16.37,-6.559 l -47.01,-43.715 c -4.35,-4.367 -6.53,-9.836 -6.53,-16.39 V 223.902 c 0,-6.558 2.18,-12.023 6.53,-16.394 l 43.72,-43.711 c 4.36,-4.371 9.83,-6.559 16.37,-6.559 h 138.8 c 6.58,0 12,2.188 16.41,6.559 l 63.37,60.105"
       style="fill:#142a5e;fill-opacity:1;fill-rule:evenodd;stroke:none"
       id="path184" /><path
       d="m 2644.32,165.492 10.73,61.078 c -4.67,8.399 -11.85,13.071 -21.1,13.071 -26.84,0 -43.38,-37.309 -43.38,-64.426 0,-20.145 8.99,-30.192 23.81,-30.192 9.42,0 18.4,5.473 29.94,20.469 z m -197.85,9.137 c 0,126.281 92.82,209.656 203.8,209.656 97.79,0 160.06,-66.465 160.06,-161.113 0,-82.621 -55.46,-124.047 -102.79,-124.047 -26.11,0 -47.38,12.332 -52.17,34.348 h -0.9 c -12.54,-17.918 -35.83,-30.149 -54.39,-30.149 -35.31,0 -59.56,26.586 -59.56,68.008 0,55.145 39.52,110.758 91.36,110.758 14.78,0 26.69,-6.488 34.23,-22.442 h 0.91 l 6.59,18.829 h 40.8 l -20.58,-99.547 c -6.38,-26.254 0.58,-38.852 20.56,-38.852 27.44,0 54.07,31.856 54.07,81.445 0,64.649 -34.82,122.555 -123.55,122.555 -77.21,0 -153.62,-66.039 -153.62,-167.797 0.01,-89.1716 61.69,-131.8044 132.03,-131.8044 23.29,0 49.92,7.5507 68.64,17.3867 l 14.52,-36.1719 c -27.55,-14.7851 -56.31,-21.42577 -88.54,-21.42577 -90.49,0 -171.48,54.87107 -171.47,170.36337"
       style="fill:#08090a;fill-opacity:1;fill-rule:evenodd;stroke:none"
       id="path186" /></g></svg>
