<?xml version="1.0" encoding="UTF-8" standalone="no"?>
<svg
   xmlns:dc="http://purl.org/dc/elements/1.1/"
   xmlns:cc="http://creativecommons.org/ns#"
   xmlns:rdf="http://www.w3.org/1999/02/22-rdf-syntax-ns#"
   xmlns:svg="http://www.w3.org/2000/svg"
   xmlns="http://www.w3.org/2000/svg"
   xmlns:sodipodi="http://sodipodi.sourceforge.net/DTD/sodipodi-0.dtd"
   xmlns:inkscape="http://www.inkscape.org/namespaces/inkscape"
   width="101.10062mm"
   height="97.936203mm"
   viewBox="0 0 101.10062 97.936203"
   version="1.1"
   id="svg5"
   xml:space="preserve"
   inkscape:version="1.0.2 (e86c870879, 2021-01-15, custom)"
   sodipodi:docname="octopy_web2.svg"><metadata
     id="metadata52"><rdf:RDF><cc:Work
         rdf:about=""><dc:format>image/svg+xml</dc:format><dc:type
           rdf:resource="http://purl.org/dc/dcmitype/StillImage" /><dc:title></dc:title></cc:Work></rdf:RDF></metadata><sodipodi:namedview
     id="namedview7"
     pagecolor="#ffffff"
     bordercolor="#000000"
     borderopacity="0.25"
     inkscape:showpageshadow="2"
     inkscape:pageopacity="0.0"
     inkscape:pagecheckerboard="0"
     inkscape:deskcolor="#d1d1d1"
     inkscape:document-units="mm"
     showgrid="false"
     inkscape:zoom="1.6819304"
     inkscape:cx="194.88872"
     inkscape:cy="201.63828"
     inkscape:window-width="1920"
     inkscape:window-height="1017"
     inkscape:window-x="-8"
     inkscape:window-y="-8"
     inkscape:window-maximized="1"
     inkscape:current-layer="layer1"
     inkscape:document-rotation="0" /><defs
     id="defs2"><marker
       style="overflow:visible"
       id="marker1216"
       refX="0"
       refY="0"
       orient="auto-start-reverse"
       inkscape:stockid="RoundedArrow"
       markerWidth="2"
       markerHeight="1.9334098"
       viewBox="0 0 6.1347524 5.9304953"
       inkscape:isstock="true"
       preserveAspectRatio="xMidYMid"><path
         d="m -0.14780188,-2.873901 4.49560378,2.24780197 a 0.7,0.7 0 0 1 0,1.25219806 L -0.14780188,2.873901 A 0.8652476,0.8652476 0 0 1 -1.4,2.1 v -4.2 a 0.8652476,0.8652476 0 0 1 1.25219812,-0.773901 z"
         style="fill:#000000;fill-rule:evenodd;stroke:#000000;stroke-width:0.7;stroke-opacity:1;fill-opacity:1"
         id="path1214" /></marker><marker
       style="overflow:visible"
       id="marker1206"
       refX="0"
       refY="0"
       orient="auto-start-reverse"
       inkscape:stockid="RoundedArrow"
       markerWidth="2"
       markerHeight="1.9334098"
       viewBox="0 0 6.1347524 5.9304953"
       inkscape:isstock="true"
       preserveAspectRatio="xMidYMid"><path
         d="m -0.14780188,-2.873901 4.49560378,2.24780197 a 0.7,0.7 0 0 1 0,1.25219806 L -0.14780188,2.873901 A 0.8652476,0.8652476 0 0 1 -1.4,2.1 v -4.2 a 0.8652476,0.8652476 0 0 1 1.25219812,-0.773901 z"
         style="fill:#000000;fill-rule:evenodd;stroke:#000000;stroke-width:0.7;stroke-opacity:1;fill-opacity:1"
         id="path1204" /></marker><rect
       x="406.67557"
       y="131.39664"
       width="132.59536"
       height="28.572269"
       id="rect6483" /><rect
       x="438.18698"
       y="162.90805"
       width="98.101562"
       height="41.618843"
       id="rect4919" /><rect
       x="274.68436"
       y="305.60123"
       width="211.66154"
       height="63.617374"
       id="rect4913" /><rect
       x="417.37756"
       y="271.71161"
       width="121.18956"
       height="24.883696"
       id="rect3711" /><rect
       x="161.12437"
       y="426.89044"
       width="241.3893"
       height="121.88376"
       id="rect2418" /><rect
       x="215.82344"
       y="473.86026"
       width="122.47831"
       height="21.403976"
       id="rect2000" /><rect
       x="215.82344"
       y="473.86026"
       width="122.47831"
       height="21.403976"
       id="rect2000-3" /><marker
       style="overflow:visible"
       id="RoundedArrow-5"
       refX="0"
       refY="0"
       orient="auto-start-reverse"
       inkscape:stockid="RoundedArrow"
       markerWidth="2"
       markerHeight="1.9334098"
       viewBox="0 0 6.1347524 5.9304953"
       inkscape:isstock="true"
       inkscape:collect="always"
       preserveAspectRatio="xMidYMid"><path
         d="m -0.14780188,-2.873901 4.49560378,2.24780197 a 0.7,0.7 0 0 1 0,1.25219806 L -0.14780188,2.873901 A 0.8652476,0.8652476 0 0 1 -1.4,2.1 v -4.2 a 0.8652476,0.8652476 0 0 1 1.25219812,-0.773901 z"
         style="fill:#ff6600;fill-rule:evenodd;stroke:#0060ff;stroke-width:0.7;stroke-opacity:1;fill-opacity:1"
         id="path1367-3" /></marker><rect
       x="417.37756"
       y="271.71161"
       width="149.26274"
       height="83.206679"
       id="rect3711-6" /><rect
       x="406.67557"
       y="131.39664"
       width="132.59537"
       height="28.572269"
       id="rect6483-7" /><rect
       x="406.67557"
       y="131.39664"
       width="132.59537"
       height="28.572269"
       id="rect904" /><marker
       style="overflow:visible"
       id="RoundedArrow-5-4"
       refX="0"
       refY="0"
       orient="auto-start-reverse"
       inkscape:stockid="RoundedArrow"
       markerWidth="2"
       markerHeight="1.9334098"
       viewBox="0 0 6.1347524 5.9304953"
       inkscape:isstock="true"
       inkscape:collect="always"
       preserveAspectRatio="xMidYMid"><path
         d="m -0.14780188,-2.873901 4.49560378,2.24780197 a 0.7,0.7 0 0 1 0,1.25219806 L -0.14780188,2.873901 A 0.8652476,0.8652476 0 0 1 -1.4,2.1 v -4.2 a 0.8652476,0.8652476 0 0 1 1.25219812,-0.773901 z"
         style="fill:#ffff00;fill-opacity:1;fill-rule:evenodd;stroke:#0060ff;stroke-width:0.7;stroke-opacity:1"
         id="path1367-3-8" /></marker><rect
       x="406.67557"
       y="131.39664"
       width="132.59537"
       height="28.572269"
       id="rect6483-7-9" /><rect
       x="406.67557"
       y="131.39664"
       width="132.59537"
       height="28.572269"
       id="rect1164" /><rect
       x="417.37756"
       y="271.71161"
       width="121.18956"
       height="24.883696"
       id="rect3711-2" /><rect
       x="417.37756"
       y="271.71161"
       width="121.18956"
       height="24.883696"
       id="rect1329" /><rect
       x="417.37756"
       y="271.71161"
       width="121.18956"
       height="24.883696"
       id="rect3711-5" /><rect
       x="417.37756"
       y="271.71161"
       width="121.18956"
       height="24.883696"
       id="rect1425" /><rect
       x="417.37756"
       y="271.71161"
       width="121.18956"
       height="24.883696"
       id="rect3711-9" /><rect
       x="417.37756"
       y="271.71161"
       width="121.18956"
       height="24.883696"
       id="rect1425-8" /><marker
       style="overflow:visible"
       id="RoundedArrow-7"
       refX="0"
       refY="0"
       orient="auto-start-reverse"
       inkscape:stockid="RoundedArrow"
       markerWidth="2"
       markerHeight="1.9334098"
       viewBox="0 0 6.1347524 5.9304953"
       inkscape:isstock="true"
       preserveAspectRatio="xMidYMid"
       inkscape:collect="always"><path
         d="m -0.14780188,-2.873901 4.49560378,2.24780197 a 0.7,0.7 0 0 1 0,1.25219806 L -0.14780188,2.873901 A 0.8652476,0.8652476 0 0 1 -1.4,2.1 v -4.2 a 0.8652476,0.8652476 0 0 1 1.25219812,-0.773901 z"
         style="fill:#000000;fill-opacity:1;fill-rule:evenodd;stroke:#000000;stroke-width:0.7;stroke-opacity:1"
         id="path1367-8" /></marker><rect
       x="417.37756"
       y="271.71161"
       width="138.42564"
       height="25.897583"
       id="rect3711-6-2" /><rect
       x="417.37756"
       y="271.71161"
       width="138.42564"
       height="25.897583"
       id="rect2014" /><rect
       x="417.37756"
       y="271.71161"
       width="176.40662"
       height="35.744941"
       id="rect3711-6-2-7" /><rect
       x="417.37756"
       y="271.71161"
       width="138.42564"
       height="25.897583"
       id="rect2094" /><rect
       x="417.37756"
       y="271.71161"
       width="132.24447"
       height="76.499509"
       id="rect3711-6-2-6" /><rect
       x="417.37756"
       y="271.71161"
       width="138.42564"
       height="25.897583"
       id="rect2691" /><marker
       style="overflow:visible"
       id="RoundedArrow-1-1-5-6"
       refX="0"
       refY="0"
       orient="auto-start-reverse"
       inkscape:stockid="RoundedArrow"
       markerWidth="2"
       markerHeight="1.9334098"
       viewBox="0 0 6.1347524 5.9304953"
       inkscape:isstock="true"
       inkscape:collect="always"
       preserveAspectRatio="xMidYMid"><path
         d="m -0.14780188,-2.873901 4.49560378,2.24780197 a 0.7,0.7 0 0 1 0,1.25219806 L -0.14780188,2.873901 A 0.8652476,0.8652476 0 0 1 -1.4,2.1 v -4.2 a 0.8652476,0.8652476 0 0 1 1.25219812,-0.773901 z"
         style="fill:#000000;fill-opacity:1;fill-rule:evenodd;stroke:#000000;stroke-width:0.7;stroke-opacity:1"
         id="path1367-2-4-7-4" /></marker><rect
       x="417.37756"
       y="271.71161"
       width="176.40662"
       height="35.744942"
       id="rect3711-6-2-7-9" /><rect
       x="417.37756"
       y="271.71161"
       width="176.40662"
       height="35.744942"
       id="rect4252" /><rect
       x="417.37756"
       y="271.71161"
       width="138.42564"
       height="25.897583"
       id="rect3711-6-2-6-5" /><rect
       x="417.37756"
       y="271.71161"
       width="138.42564"
       height="25.897583"
       id="rect4787" /><rect
       x="417.37756"
       y="271.71161"
       width="132.24448"
       height="76.499512"
       id="rect3711-6-2-6-2" /><rect
       x="417.37756"
       y="271.71161"
       width="132.24448"
       height="76.499512"
       id="rect4824" /></defs><g
     inkscape:label="Ebene 1"
     inkscape:groupmode="layer"
     id="layer1"
     transform="translate(-39.866208,-26.771819)"
     style="display:inline"><rect
       style="fill:#000000;fill-opacity:0;stroke:#000000;stroke-width:4.9;stroke-linejoin:bevel;stroke-opacity:0;paint-order:markers fill stroke"
       id="rect234"
       width="90.767479"
       height="39.484642"
       x="42.316208"
       y="62.137184" /><text
       xml:space="preserve"
       transform="scale(0.26458333)"
       id="text2416"
       style="font-size:18.6667px;font-family:sans-serif;-inkscape-font-specification:'sans-serif, Normal';text-align:center;white-space:pre;shape-inside:url(#rect2418);display:inline;fill:#000000;fill-opacity:1;stroke:none;stroke-width:1.51181;stroke-linejoin:round;stroke-dasharray:none;stroke-opacity:0.988479;paint-order:markers fill stroke;" /><text
       xml:space="preserve"
       transform="scale(0.26458333)"
       id="text4917"
       style="font-size:18.6667px;font-family:sans-serif;-inkscape-font-specification:'sans-serif, Normal';text-align:center;white-space:pre;shape-inside:url(#rect4919);display:inline;fill:#000000;fill-opacity:1;stroke:none;stroke-width:4.53543;stroke-linejoin:round;stroke-dasharray:none;stroke-opacity:1;paint-order:markers fill stroke;" /><rect
       style="fill:none;fill-opacity:1;stroke:#000000;stroke-width:0.602694;stroke-linejoin:round;stroke-dasharray:none;stroke-opacity:1;paint-order:markers fill stroke"
       id="rect6427"
       width="46.911381"
       height="9.7597857"
       x="90.639534"
       y="29.075386" /><text
       xml:space="preserve"
       transform="matrix(0.84650414,0,0,0.84650414,-286.8463,-82.220299)"
       id="text6481"
       style="font-size:10.0019px;font-family:sans-serif;-inkscape-font-specification:'sans-serif, Normal';text-align:center;white-space:pre;shape-inside:url(#rect6483);display:inline;fill:#000000;fill-opacity:1;stroke:none;stroke-width:4.53543;stroke-linejoin:round;stroke-dasharray:none;stroke-opacity:1;paint-order:markers fill stroke;"><tspan
         x="446.27911"
         y="140.52152"><tspan
           style="font-size:10.0019px">ECS/Client</tspan></tspan></text><rect
       style="fill:#000000;fill-opacity:0;stroke:#0060ff;stroke-width:2.2784;stroke-linejoin:round;stroke-dasharray:none;stroke-opacity:1;paint-order:markers fill stroke"
       id="rect1214"
       width="97.097343"
       height="33.872055"
       x="41.674755"
       y="67.617737"
       ry="0" /><rect
       style="fill:#ff0000;fill-opacity:0;stroke:#ff0000;stroke-width:1.2;stroke-linejoin:round;stroke-dasharray:none;stroke-opacity:1;paint-order:markers fill stroke"
       id="rect1942"
       width="32.574715"
       height="9.2929335"
       x="64.468224"
       y="114.81509" /><text
       xml:space="preserve"
       transform="matrix(0.26458333,0,0,0.26458333,7.335864,-8.555413)"
       id="text1998"
       style="font-size:18.6667px;font-family:sans-serif;-inkscape-font-specification:'sans-serif, Normal';text-align:center;white-space:pre;shape-inside:url(#rect2000);display:inline;fill:#000000;fill-opacity:1;stroke:none;stroke-width:1.51181;stroke-linejoin:round;stroke-dasharray:none;stroke-opacity:0.988479;paint-order:markers fill stroke;"><tspan
         x="231.94979"
         y="490.88957"><tspan>Hardware</tspan></tspan></text><rect
       style="fill:#ff0000;fill-opacity:0;stroke:#ff0000;stroke-width:1.2;stroke-linejoin:round;stroke-dasharray:none;stroke-opacity:1;paint-order:markers fill stroke"
       id="rect1942-6"
       width="32.574715"
       height="9.2929335"
       x="103.49347"
       y="114.81509" /><text
       xml:space="preserve"
       transform="matrix(0.26458333,0,0,0.26458333,46.361115,-8.555413)"
       id="text1998-7"
       style="font-size:18.6667px;font-family:sans-serif;-inkscape-font-specification:'sans-serif, Normal';text-align:center;white-space:pre;shape-inside:url(#rect2000-3);display:inline;fill:#000000;fill-opacity:1;stroke:none;stroke-width:1.51181;stroke-linejoin:round;stroke-dasharray:none;stroke-opacity:0.988479;paint-order:markers fill stroke;"><tspan
         x="231.94979"
         y="490.88957"><tspan>Hardware</tspan></tspan></text><rect
       style="fill:none;fill-opacity:1;stroke:#000000;stroke-width:1.03926;stroke-linejoin:round;stroke-dasharray:none;stroke-opacity:0.992157;paint-order:markers fill stroke"
       id="rect2563"
       width="24.781225"
       height="7.0052686"
       x="67.768311"
       y="93.070297" /><text
       xml:space="preserve"
       transform="matrix(0.2194219,0,0,0.2194219,-24.942863,35.480861)"
       id="text3709"
       style="font-size:12.8621px;font-family:sans-serif;-inkscape-font-specification:'sans-serif, Normal';text-align:center;white-space:pre;shape-inside:url(#rect3711);display:inline;fill:#000000;fill-opacity:1;stroke:none;stroke-width:1.51181;stroke-linejoin:round;stroke-dasharray:none;stroke-opacity:1;paint-order:markers fill stroke;"><tspan
         x="430.94463"
         y="283.44542"><tspan
           style="font-size:12.8621px">General Driver</tspan></tspan></text><rect
       style="fill:none;fill-opacity:1;stroke:#000000;stroke-width:1.63389;stroke-linejoin:round;stroke-dasharray:none;stroke-opacity:0.992157;paint-order:markers fill stroke"
       id="rect2563-2"
       width="26.546232"
       height="16.163813"
       x="80.064743"
       y="72.646469" /><text
       xml:space="preserve"
       transform="matrix(0.17298829,0,0,0.17298829,8.5888399,27.413572)"
       id="text3709-9"
       style="font-size:18.6667px;font-family:sans-serif;-inkscape-font-specification:'sans-serif, Normal';text-align:center;white-space:pre;shape-inside:url(#rect3711-6);display:inline;fill:#000000;fill-opacity:1;stroke:none;stroke-width:1.51181;stroke-linejoin:round;stroke-dasharray:none;stroke-opacity:1;paint-order:markers fill stroke;"><tspan
         x="443.16365"
         y="288.74113"><tspan>Your logic,
</tspan></tspan><tspan
         x="443.98852"
         y="312.07451"><tspan>metadata,
</tspan></tspan><tspan
         x="438.46052"
         y="335.40788"><tspan>stored data</tspan></tspan></text><text
       xml:space="preserve"
       transform="matrix(0.54047641,0,0,0.54047641,-149.92193,-96.085794)"
       id="text4911"
       style="font-size:13.0543px;font-family:sans-serif;-inkscape-font-specification:'sans-serif, Normal';text-align:center;white-space:pre;shape-inside:url(#rect4913);display:inline;fill:#000000;fill-opacity:1;stroke:none;stroke-width:4.53543;stroke-linejoin:round;stroke-dasharray:none;stroke-opacity:1;paint-order:markers fill stroke;"><tspan
         x="357.52939"
         y="317.5114"><tspan
           style="font-size:13.0543px">Octopy</tspan></tspan></text><path
       style="fill:#000000;fill-opacity:1;stroke:#000000;stroke-width:0.919622;stroke-linejoin:round;stroke-dasharray:none;stroke-opacity:1;marker-start:url(#marker1206);marker-end:url(#marker1216);paint-order:markers fill stroke"
       d="m 80.194777,112.885 v -8.37778"
       id="path10265"
       sodipodi:nodetypes="cc" /><path
       style="fill:#ff6600;fill-opacity:1;stroke:#0060ff;stroke-width:1.25244;stroke-linejoin:round;stroke-dasharray:none;stroke-opacity:1;marker-start:url(#RoundedArrow-5);marker-end:url(#RoundedArrow-5);paint-order:markers fill stroke"
       d="M 99.790215,62.404971 V 44.514102"
       id="path10267-5"
       sodipodi:nodetypes="cc" /><g
       id="g10"
       transform="matrix(0.00809111,0,0,-0.00809111,103.2579,59.276331)"><path
         id="path12"
         style="fill:#231f20;fill-opacity:1;fill-rule:evenodd;stroke:none"
         d="M 3564.17,914.37014 V 7.0751955 h 204.5215 V 319.58497 h 97.3975 c 109.7099,0 197.177,28.28165 262.8369,84.43359 65.6499,56.37195 98.4814,130.02521 98.4814,221.16212 0,192.86281 -114.2541,289.18946 -342.9638,289.18946 z m 204.5215,-156.79688 h 80.332 c 108.8499,0 163.2715,-46.65427 163.2715,-139.95117 0,-95.24591 -54.4216,-142.98341 -163.2715,-142.98341 h -80.332 z" /><path
         id="path14"
         style="fill:#231f20;fill-opacity:1;fill-rule:evenodd;stroke:none"
         d="m 3079.7608,686.52834 c -109.0599,0 -195.8745,-30.23419 -260.0244,-90.70313 -64.1399,-60.47194 -96.1084,-144.48468 -96.1084,-251.60157 0,-103.66789 30.8814,-185.95373 92.6514,-246.430669 61.7699,-60.468739 146.6539,-90.7031271 254.6338,-90.7031271 109.7099,0 196.1002,31.1011901 259.1601,93.5156261 63.07,62.41794 94.585,147.50771 94.585,255.0586 0,99.5589 -30.6525,179.6892 -91.7725,240.16114 -61.1199,60.46894 -145.5651,90.70313 -253.125,90.70313 z m -3.6767,-153.12012 c 96.5399,0 144.917,-60.46511 144.917,-181.62598 0,-127.63988 -47.9434,-191.57228 -143.6133,-191.57228 -100.4299,0 -150.7471,62.18893 -150.7471,186.59181 0,59.38994 13.1864,105.40361 39.3164,138.01758 26.13,32.39397 62.827,48.58887 110.127,48.58887 z" /><path
         d="M 2613.9,53.9805 C 2550.07,23.1055 2466.43,7.66797 2363.38,7.66797 c -134.33,0 -240.09,39.42583 -317.06,118.48403 -77.18,79.055 -115.55,184.395 -115.55,316.016 0,140.172 43.18,253.855 129.74,341.047 86.57,87.191 198.99,130.785 337.08,130.785 85.52,0 157.7,-10.844 216.31,-32.535 V 691.434 c -58.61,35.046 -125.36,52.562 -200.45,52.562 -82.19,0 -148.73,-25.863 -199.21,-77.594 -50.48,-51.73 -75.72,-121.816 -75.72,-210.261 0,-84.688 23.78,-152.27 71.55,-202.539 47.56,-50.274 111.8,-75.512 192.53,-75.512 76.97,0 147.47,18.773 211.3,56.316 V 53.9805"
         style="fill:#231f20;fill-opacity:1;fill-rule:evenodd;stroke:none"
         id="path20" /><path
         d="M 1818.05,7.07031 H 1273.81 V 914.363 h 523.3 v -166.3 h -318.78 v -201.93 h 296.74 V 380.48 H 1478.33 V 172.938 h 339.72 V 7.07031"
         style="fill:#231f20;fill-opacity:1;fill-rule:evenodd;stroke:none"
         id="path22" /><path
         d="m 5.29688,11.3164 c 226.34812,0 451.86712,0.0391 678.21112,0.0391 184.555,0 262.945,29.7929 343.042,107.4685 53.5,51.887 115.33,141.297 114.73,274.379 -1.48,324.66 -296.534,288.137 -291.358,473.774 1.164,41.996 27.258,82.187 64.125,102.675 35.019,19.45 70.254,29.016 127.893,29.164 235.71,0.579 -0.78,0 244.49,0.379 l 3207.09,-0.011 161.75,278.356 -3499.6,0.01 C 998.613,1273.74 831.242,1286.11 704.672,1169.31 603.332,1075.8 568.473,968.301 568.066,871.086 567.637,767.996 599.586,698.063 636.594,644.746 724.48,518.102 867.73,493.148 866.523,397.719 865.223,295.273 766.898,283.129 604.781,283.93 458.027,284.652 310.82,283.441 164.027,283.965 L 5.29688,11.3164"
         style="fill:#231f20;fill-opacity:1;fill-rule:evenodd;stroke:none"
         id="path24" /><path
         d="m 5.29688,11.3164 c 226.34812,0 451.86712,0.0391 678.21112,0.0391 184.555,0 262.945,29.7929 343.042,107.4685 53.5,51.887 115.33,141.297 114.73,274.379 -1.48,324.66 -296.534,288.137 -291.358,473.774 1.164,41.996 27.258,82.187 64.125,102.675 35.019,19.45 70.254,29.016 127.893,29.164 235.71,0.579 -0.78,0 244.49,0.379 l 3207.09,-0.011 161.75,278.356 -3499.6,0.01 C 998.613,1273.74 831.242,1286.11 704.672,1169.31 603.332,1075.8 568.473,968.301 568.066,871.086 567.637,767.996 599.586,698.063 636.594,644.746 724.48,518.102 867.73,493.148 866.523,397.719 865.223,295.273 766.898,283.129 604.781,283.93 458.027,284.652 310.82,283.441 164.027,283.965 Z"
         style="fill:none;stroke:#231f20;stroke-width:4.9975;stroke-linecap:butt;stroke-linejoin:miter;stroke-miterlimit:22.9256;stroke-dasharray:none;stroke-opacity:1"
         id="path26" /></g><text
       xml:space="preserve"
       transform="matrix(0.84650414,0,0,0.84650414,-336.36294,-82.584507)"
       id="text6481-8"
       style="font-size:10.0019px;font-family:sans-serif;-inkscape-font-specification:'sans-serif, Normal';text-align:center;white-space:pre;shape-inside:url(#rect6483-7);display:inline;fill:#000000;fill-opacity:1;stroke:none;stroke-width:4.53543;stroke-linejoin:round;stroke-dasharray:none;stroke-opacity:1;paint-order:markers fill stroke;"><tspan
         x="446.27911"
         y="140.52152"><tspan
           style="font-size:10.0019px">ECS/Client</tspan></tspan></text><rect
       style="fill:none;fill-opacity:1;stroke:#000000;stroke-width:0.602694;stroke-linejoin:round;stroke-dasharray:none;stroke-opacity:1;paint-order:markers fill stroke"
       id="rect6427-9"
       width="46.911381"
       height="9.7597857"
       x="40.882103"
       y="29.010935" /><path
       style="fill:#ffff00;fill-opacity:1;stroke:#0060ff;stroke-width:1.25244;stroke-linejoin:round;stroke-dasharray:none;stroke-opacity:1;marker-start:url(#RoundedArrow-5-4);marker-end:url(#RoundedArrow-5-4);paint-order:markers fill stroke"
       d="M 79.576921,62.413531 V 44.522662"
       id="path10267-5-6"
       sodipodi:nodetypes="cc" /><text
       xml:space="preserve"
       transform="matrix(0.84650414,0,0,0.84650414,-338.4764,-61.338719)"
       id="text6481-8-5"
       style="font-size:10.0019px;font-family:sans-serif;-inkscape-font-specification:'sans-serif, Normal';text-align:center;white-space:pre;shape-inside:url(#rect6483-7-9);display:inline;fill:#000000;fill-opacity:1;stroke:none;stroke-width:4.53543;stroke-linejoin:round;stroke-dasharray:none;stroke-opacity:1;paint-order:markers fill stroke;"><tspan
         x="457.78032"
         y="140.52152"><tspan
           style="font-size:10.0019px">EPICS</tspan></tspan></text><path
       style="fill:#000000;fill-opacity:1;stroke:#000000;stroke-width:0.897318;stroke-linejoin:round;stroke-dasharray:none;stroke-opacity:1;marker-start:url(#RoundedArrow-7);marker-end:url(#RoundedArrow-7);paint-order:markers fill stroke"
       d="m 118.64155,112.55399 v -8.08573"
       id="path10267-52"
       sodipodi:nodetypes="cc" /><text
       xml:space="preserve"
       transform="matrix(0.12740558,0,0,0.15194398,27.018025,61.906503)"
       id="text3709-9-5-4"
       style="font-size:18.6667px;font-family:sans-serif;-inkscape-font-specification:'sans-serif, Normal';text-align:center;white-space:pre;shape-inside:url(#rect3711-6-2-6);display:inline;fill:#000000;fill-opacity:1;stroke:none;stroke-width:1.51181;stroke-linejoin:round;stroke-dasharray:none;stroke-opacity:1;paint-order:markers fill stroke;"><tspan
         x="460.30692"
         y="288.74113"><tspan>GPIB
</tspan></tspan><tspan
         x="451.98985"
         y="312.07451"><tspan>TCP/IP
</tspan></tspan><tspan
         x="446.35703"
         y="335.40788"><tspan>modbus</tspan></tspan></text><path
       style="fill:#000000;fill-opacity:1;stroke:#000000;stroke-width:0.586681;stroke-linejoin:round;stroke-dasharray:none;stroke-opacity:1;marker-start:url(#RoundedArrow-1-1-5-6);marker-end:url(#RoundedArrow-1-1-5-6);paint-order:markers fill stroke"
       d="m 95.666723,90.60335 -0.576178,0.629995 -1.14429,1.25117"
       id="path10267-7-7-9-0"
       sodipodi:nodetypes="ccc" /><text
       xml:space="preserve"
       transform="matrix(0.06500737,0,0,0.07931253,66.10832,70.339987)"
       id="text3709-9-5-9-6"
       style="font-size:18.6667px;font-family:sans-serif;-inkscape-font-specification:'sans-serif, Normal';text-align:center;white-space:pre;shape-inside:url(#rect3711-6-2-7-9);display:inline;fill:#000000;fill-opacity:1;stroke:none;stroke-width:1.51181;stroke-linejoin:round;stroke-dasharray:none;stroke-opacity:1;paint-order:markers fill stroke;"><tspan
         x="453.49567"
         y="288.74113"><tspan>Octopy API</tspan></tspan></text><text
       xml:space="preserve"
       transform="matrix(0.12740558,0,0,0.15194398,66.300313,62.812357)"
       id="text3709-9-5-4-2"
       style="font-size:18.6667px;font-family:sans-serif;-inkscape-font-specification:'sans-serif, Normal';text-align:center;white-space:pre;shape-inside:url(#rect3711-6-2-6-2);display:inline;fill:#000000;fill-opacity:1;stroke:none;stroke-width:1.51181;stroke-linejoin:round;stroke-dasharray:none;stroke-opacity:1;paint-order:markers fill stroke;"><tspan
         x="423.99436"
         y="288.74113"><tspan>Native MQTT
</tspan></tspan><tspan
         x="453.40717"
         y="312.07451"><tspan>SECoP</tspan><tspan>
</tspan></tspan></text></g></svg>
