<?xml version="1.0" encoding="UTF-8" standalone="no"?>
<!-- Created with Inkscape (http://www.inkscape.org/) -->

<svg
   width="103.43269mm"
   height="97.936203mm"
   viewBox="0 0 103.43269 97.936203"
   version="1.1"
   id="svg5"
   xml:space="preserve"
   inkscape:version="1.2.2 (b0a8486541, 2022-12-01)"
   sodipodi:docname="shall.svg"
   xmlns:inkscape="http://www.inkscape.org/namespaces/inkscape"
   xmlns:sodipodi="http://sodipodi.sourceforge.net/DTD/sodipodi-0.dtd"
   xmlns="http://www.w3.org/2000/svg"
   xmlns:svg="http://www.w3.org/2000/svg"><sodipodi:namedview
     id="namedview7"
     pagecolor="#ffffff"
     bordercolor="#000000"
     borderopacity="0.25"
     inkscape:showpageshadow="2"
     inkscape:pageopacity="0.0"
     inkscape:pagecheckerboard="0"
     inkscape:deskcolor="#d1d1d1"
     inkscape:document-units="mm"
     showgrid="false"
     inkscape:zoom="1.6819304"
     inkscape:cx="117.4246"
     inkscape:cy="181.33925"
     inkscape:window-width="1920"
     inkscape:window-height="1171"
     inkscape:window-x="1920"
     inkscape:window-y="0"
     inkscape:window-maximized="1"
     inkscape:current-layer="layer1" /><defs
     id="defs2"><marker
       style="overflow:visible"
       id="RoundedArrow"
       refX="0"
       refY="0"
       orient="auto-start-reverse"
       inkscape:stockid="RoundedArrow"
       markerWidth="2"
       markerHeight="1.9334098"
       viewBox="0 0 6.1347524 5.9304953"
       inkscape:isstock="true"
       inkscape:collect="always"
       preserveAspectRatio="xMidYMid"><path
         d="m -0.14780188,-2.873901 4.49560378,2.24780197 a 0.7,0.7 0 0 1 0,1.25219806 L -0.14780188,2.873901 A 0.8652476,0.8652476 0 0 1 -1.4,2.1 v -4.2 a 0.8652476,0.8652476 0 0 1 1.25219812,-0.773901 z"
         style="fill:context-stroke;fill-rule:evenodd;stroke:none;stroke-width:0.7"
         id="path1367" /></marker><rect
       x="406.67557"
       y="131.39664"
       width="171.82637"
       height="51.131721"
       id="rect6483" /><rect
       x="438.18698"
       y="162.90805"
       width="98.101562"
       height="41.618843"
       id="rect4919" /><rect
       x="274.68436"
       y="305.60123"
       width="211.66154"
       height="63.617374"
       id="rect4913" /><rect
       x="417.37756"
       y="271.71161"
       width="86.210464"
       height="24.376753"
       id="rect3711" /><rect
       x="161.12437"
       y="426.89044"
       width="241.3893"
       height="121.88376"
       id="rect2418" /><rect
       x="215.82344"
       y="473.86026"
       width="122.47831"
       height="21.403976"
       id="rect2000" /><rect
       x="215.82344"
       y="473.86026"
       width="122.47831"
       height="21.403976"
       id="rect2000-3" /><marker
       style="overflow:visible"
       id="RoundedArrow-5"
       refX="0"
       refY="0"
       orient="auto-start-reverse"
       inkscape:stockid="RoundedArrow"
       markerWidth="2"
       markerHeight="1.9334098"
       viewBox="0 0 6.1347524 5.9304953"
       inkscape:isstock="true"
       inkscape:collect="always"
       preserveAspectRatio="xMidYMid"><path
         d="m -0.14780188,-2.873901 4.49560378,2.24780197 a 0.7,0.7 0 0 1 0,1.25219806 L -0.14780188,2.873901 A 0.8652476,0.8652476 0 0 1 -1.4,2.1 v -4.2 a 0.8652476,0.8652476 0 0 1 1.25219812,-0.773901 z"
         style="fill:context-stroke;fill-rule:evenodd;stroke:none;stroke-width:0.7"
         id="path1367-3" /></marker></defs><g
     inkscape:label="Ebene 1"
     inkscape:groupmode="layer"
     id="layer1"
     transform="translate(-39.866208,-26.771819)"><rect
       style="fill:#000000;fill-opacity:0;stroke:#000000;stroke-width:4.9;stroke-linejoin:bevel;stroke-opacity:0;paint-order:markers fill stroke"
       id="rect234"
       width="90.767479"
       height="39.484642"
       x="42.316208"
       y="62.137184" /><text
       xml:space="preserve"
       transform="scale(0.26458333)"
       id="text2416"
       style="font-size:18.6667px;font-family:sans-serif;-inkscape-font-specification:'sans-serif, Normal';text-align:center;white-space:pre;shape-inside:url(#rect2418);fill:#000000;fill-opacity:1;stroke:none;stroke-width:1.51181;stroke-linejoin:round;stroke-dasharray:none;stroke-opacity:0.988479;paint-order:markers fill stroke" /><text
       xml:space="preserve"
       transform="scale(0.26458333)"
       id="text4917"
       style="font-size:18.6667px;font-family:sans-serif;-inkscape-font-specification:'sans-serif, Normal';text-align:center;white-space:pre;shape-inside:url(#rect4919);fill:#000000;fill-opacity:1;stroke:none;stroke-width:4.53543;stroke-linejoin:round;stroke-dasharray:none;stroke-opacity:1;paint-order:markers fill stroke" /><rect
       style="fill:none;fill-opacity:1;stroke:#000000;stroke-width:1.01586;stroke-linejoin:round;stroke-dasharray:none;stroke-opacity:1;paint-order:markers fill stroke"
       id="rect6427"
       width="79.534859"
       height="16.354393"
       x="60.924034"
       y="27.279749" /><text
       xml:space="preserve"
       transform="matrix(0.84650414,0,0,0.84650414,-316.8796,-84.22252)"
       id="text6481"
       style="font-size:18.6667px;font-family:sans-serif;-inkscape-font-specification:'sans-serif, Normal';text-align:center;white-space:pre;shape-inside:url(#rect6483);fill:#000000;fill-opacity:1;stroke:none;stroke-width:4.53543;stroke-linejoin:round;stroke-dasharray:none;stroke-opacity:1;paint-order:markers fill stroke"><tspan
         x="447.78881"
         y="148.38085"
         id="tspan624">ECS/Client</tspan></text><rect
       style="fill:#000000;fill-opacity:0;stroke:#000000;stroke-width:2;stroke-linejoin:round;stroke-dasharray:none;stroke-opacity:0.988479;paint-order:markers fill stroke"
       id="rect1214"
       width="74.786652"
       height="33.886227"
       x="62.734058"
       y="67.610649"
       ry="0" /><rect
       style="fill:#ff0000;fill-opacity:0;stroke:#ff0000;stroke-width:1.2;stroke-linejoin:round;stroke-dasharray:none;stroke-opacity:1;paint-order:markers fill stroke"
       id="rect1942"
       width="32.574715"
       height="9.2929335"
       x="58.684029"
       y="114.81509" /><text
       xml:space="preserve"
       transform="matrix(0.26458333,0,0,0.26458333,1.5516712,-8.555413)"
       id="text1998"
       style="font-size:18.6667px;font-family:sans-serif;-inkscape-font-specification:'sans-serif, Normal';text-align:center;white-space:pre;shape-inside:url(#rect2000);fill:#000000;fill-opacity:1;stroke:none;stroke-width:1.51181;stroke-linejoin:round;stroke-dasharray:none;stroke-opacity:0.988479;paint-order:markers fill stroke"><tspan
         x="233.99844"
         y="490.84374"
         id="tspan626">Hardware</tspan></text><rect
       style="fill:#ff0000;fill-opacity:0;stroke:#ff0000;stroke-width:1.2;stroke-linejoin:round;stroke-dasharray:none;stroke-opacity:1;paint-order:markers fill stroke"
       id="rect1942-6"
       width="32.574715"
       height="9.2929335"
       x="110.12418"
       y="114.81509" /><text
       xml:space="preserve"
       transform="matrix(0.26458333,0,0,0.26458333,52.991822,-8.555413)"
       id="text1998-7"
       style="font-size:18.6667px;font-family:sans-serif;-inkscape-font-specification:'sans-serif, Normal';text-align:center;white-space:pre;shape-inside:url(#rect2000-3);display:inline;fill:#000000;fill-opacity:1;stroke:none;stroke-width:1.51181;stroke-linejoin:round;stroke-dasharray:none;stroke-opacity:0.988479;paint-order:markers fill stroke"><tspan
         x="233.99844"
         y="490.84374"
         id="tspan628">Hardware</tspan></text><rect
       style="fill:none;fill-opacity:1;stroke:#0060ff;stroke-width:1.2;stroke-linejoin:round;stroke-dasharray:none;stroke-opacity:1;paint-order:markers fill stroke"
       id="rect2563"
       width="26.036272"
       height="8.8895531"
       x="108.14793"
       y="71.69294" /><text
       xml:space="preserve"
       transform="matrix(0.26458333,0,0,0.26458333,-0.73411908,1.5169392)"
       id="text3709"
       style="font-size:18.6667px;font-family:sans-serif;-inkscape-font-specification:'sans-serif, Normal';text-align:center;white-space:pre;shape-inside:url(#rect3711);fill:#000000;fill-opacity:1;stroke:none;stroke-width:1.51181;stroke-linejoin:round;stroke-dasharray:none;stroke-opacity:1;paint-order:markers fill stroke"><tspan
         x="432.69705"
         y="288.6953"
         id="tspan630">SHALL</tspan></text><text
       xml:space="preserve"
       transform="matrix(0.70019707,0,0,0.70019707,-181.77928,-145.21325)"
       id="text4911"
       style="font-size:18.6667px;font-family:sans-serif;-inkscape-font-specification:'sans-serif, Normal';text-align:center;white-space:pre;shape-inside:url(#rect4913);fill:#000000;fill-opacity:1;stroke:none;stroke-width:4.53543;stroke-linejoin:round;stroke-dasharray:none;stroke-opacity:1;paint-order:markers fill stroke"><tspan
         x="358.0026"
         y="322.58593"
         id="tspan632">Your 
</tspan><tspan
         x="353.57862"
         y="345.9193"
         id="tspan634">Driver</tspan></text><path
       style="fill:#000000;fill-opacity:1;stroke:#000000;stroke-width:1.28;stroke-linejoin:round;stroke-dasharray:none;stroke-opacity:1;marker-start:url(#RoundedArrow);marker-end:url(#RoundedArrow);paint-order:markers fill stroke"
       d="m 74.521818,112.97373 15.413599,-9.00018"
       id="path10265"
       sodipodi:nodetypes="cc" /><path
       style="fill:#000000;fill-opacity:1;stroke:#000000;stroke-width:1.28;stroke-linejoin:round;stroke-dasharray:none;stroke-opacity:1;marker-start:url(#RoundedArrow);marker-end:url(#RoundedArrow);paint-order:markers fill stroke"
       d="m 126.93513,112.97373 -18.05528,-9.00018"
       id="path10267"
       sodipodi:nodetypes="cc" /><path
       style="fill:#ff6600;fill-opacity:1;stroke:#0060ff;stroke-width:1.25244;stroke-linejoin:round;stroke-dasharray:none;stroke-opacity:1;marker-start:url(#RoundedArrow-5);marker-end:url(#RoundedArrow-5);paint-order:markers fill stroke"
       d="M 118.70008,69.190274 101.84757,45.96015"
       id="path10267-5"
       sodipodi:nodetypes="cc" /><g
       id="g10"
       transform="matrix(0.00257833,0.00342032,0.00342032,-0.00257833,105.87196,49.86346)"
       style="fill:#000000;fill-opacity:1;stroke:#0060ff;stroke-opacity:1"><path
         id="path12"
         style="fill:#000000;fill-opacity:1;fill-rule:evenodd;stroke:#0060ff;stroke-opacity:1"
         d="M 3564.17,914.37014 V 7.0751955 h 204.5215 V 319.58497 h 97.3975 c 109.7099,0 197.177,28.28165 262.8369,84.43359 65.6499,56.37195 98.4814,130.02521 98.4814,221.16212 0,192.86281 -114.2541,289.18946 -342.9638,289.18946 z m 204.5215,-156.79688 h 80.332 c 108.8499,0 163.2715,-46.65427 163.2715,-139.95117 0,-95.24591 -54.4216,-142.98341 -163.2715,-142.98341 h -80.332 z" /><path
         id="path14"
         style="fill:#000000;fill-opacity:1;fill-rule:evenodd;stroke:#0060ff;stroke-opacity:1"
         d="m 3079.7608,686.52834 c -109.0599,0 -195.8745,-30.23419 -260.0244,-90.70313 -64.1399,-60.47194 -96.1084,-144.48468 -96.1084,-251.60157 0,-103.66789 30.8814,-185.95373 92.6514,-246.430669 61.7699,-60.468739 146.6539,-90.7031271 254.6338,-90.7031271 109.7099,0 196.1002,31.1011901 259.1601,93.5156261 63.07,62.41794 94.585,147.50771 94.585,255.0586 0,99.5589 -30.6525,179.6892 -91.7725,240.16114 -61.1199,60.46894 -145.5651,90.70313 -253.125,90.70313 z m -3.6767,-153.12012 c 96.5399,0 144.917,-60.46511 144.917,-181.62598 0,-127.63988 -47.9434,-191.57228 -143.6133,-191.57228 -100.4299,0 -150.7471,62.18893 -150.7471,186.59181 0,59.38994 13.1864,105.40361 39.3164,138.01758 26.13,32.39397 62.827,48.58887 110.127,48.58887 z" /><path
         d="M 2613.9,53.9805 C 2550.07,23.1055 2466.43,7.66797 2363.38,7.66797 c -134.33,0 -240.09,39.42583 -317.06,118.48403 -77.18,79.055 -115.55,184.395 -115.55,316.016 0,140.172 43.18,253.855 129.74,341.047 86.57,87.191 198.99,130.785 337.08,130.785 85.52,0 157.7,-10.844 216.31,-32.535 V 691.434 c -58.61,35.046 -125.36,52.562 -200.45,52.562 -82.19,0 -148.73,-25.863 -199.21,-77.594 -50.48,-51.73 -75.72,-121.816 -75.72,-210.261 0,-84.688 23.78,-152.27 71.55,-202.539 47.56,-50.274 111.8,-75.512 192.53,-75.512 76.97,0 147.47,18.773 211.3,56.316 V 53.9805"
         style="fill:#000000;fill-opacity:1;fill-rule:evenodd;stroke:#0060ff;stroke-opacity:1"
         id="path20" /><path
         d="M 1818.05,7.07031 H 1273.81 V 914.363 h 523.3 v -166.3 h -318.78 v -201.93 h 296.74 V 380.48 H 1478.33 V 172.938 h 339.72 V 7.07031"
         style="fill:#000000;fill-opacity:1;fill-rule:evenodd;stroke:#0060ff;stroke-opacity:1"
         id="path22" /><path
         d="m 5.29688,11.3164 c 226.34812,0 451.86712,0.0391 678.21112,0.0391 184.555,0 262.945,29.7929 343.042,107.4685 53.5,51.887 115.33,141.297 114.73,274.379 -1.48,324.66 -296.534,288.137 -291.358,473.774 1.164,41.996 27.258,82.187 64.125,102.675 35.019,19.45 70.254,29.016 127.893,29.164 235.71,0.579 -0.78,0 244.49,0.379 l 3207.09,-0.011 161.75,278.356 -3499.6,0.01 C 998.613,1273.74 831.242,1286.11 704.672,1169.31 603.332,1075.8 568.473,968.301 568.066,871.086 567.637,767.996 599.586,698.063 636.594,644.746 724.48,518.102 867.73,493.148 866.523,397.719 865.223,295.273 766.898,283.129 604.781,283.93 458.027,284.652 310.82,283.441 164.027,283.965 L 5.29688,11.3164"
         style="fill:#000000;fill-opacity:1;fill-rule:evenodd;stroke:#0060ff;stroke-opacity:1"
         id="path24" /><path
         d="m 5.29688,11.3164 c 226.34812,0 451.86712,0.0391 678.21112,0.0391 184.555,0 262.945,29.7929 343.042,107.4685 53.5,51.887 115.33,141.297 114.73,274.379 -1.48,324.66 -296.534,288.137 -291.358,473.774 1.164,41.996 27.258,82.187 64.125,102.675 35.019,19.45 70.254,29.016 127.893,29.164 235.71,0.579 -0.78,0 244.49,0.379 l 3207.09,-0.011 161.75,278.356 -3499.6,0.01 C 998.613,1273.74 831.242,1286.11 704.672,1169.31 603.332,1075.8 568.473,968.301 568.066,871.086 567.637,767.996 599.586,698.063 636.594,644.746 724.48,518.102 867.73,493.148 866.523,397.719 865.223,295.273 766.898,283.129 604.781,283.93 458.027,284.652 310.82,283.441 164.027,283.965 Z"
         style="fill:#000000;fill-opacity:1;stroke:#0060ff;stroke-width:4.9975;stroke-linecap:butt;stroke-linejoin:miter;stroke-miterlimit:22.9256;stroke-dasharray:none;stroke-opacity:1"
         id="path26" /></g></g></svg>
